{
  "asset": {
    "generator": "gltfeditor.com",
    "version": "2.0"
  },
  "buffers": [
    {
      "uri": "data:application/octet-stream;base64,",
      "byteLength": 118344
    }
  ],
  "bufferViews": [
    {
      "buffer": 0,
      "byteOffset": 0,
      "byteLength": 57576,
      "target": 34962,
      "byteStride": 12
    },
    {
      "buffer": 0,
      "byteOffset": 57576,
      "byteLength": 19192,
      "target": 34962,
      "byteStride": 8
    },
    {
      "buffer": 0,
      "byteOffset": 76768,
      "byteLength": 25272,
      "target": 34963
    }
  ],
  "accessors": [
    {
      "bufferView": 0,
      "byteOffset": 0,
      "componentType": 5126,
      "normalized": false,
      "count": 2399,
      "max": [
        0.9995989799499512,
        0.999580979347229,
        0.9984359741210938
      ],
      "min": [
        -0.9990839958190918,
        -1,
        -0.9998319745063782
      ],
      "type": "VEC3"
    },
    {
      "bufferView": 0,
      "byteOffset": 28788,
      "componentType": 5126,
      "normalized": false,
      "count": 2399,
      "max": [
        96.17990112304688,
        163.97000122070312,
        53.92519760131836
      ],
      "min": [
        -69.29850006103516,
        9.929369926452637,
        -61.32819747924805
      ],
      "type": "VEC3"
    },
    {
      "bufferView": 1,
      "byteOffset": 0,
      "componentType": 5126,
      "normalized": false,
      "count": 2399,
      "max": [
        0.9833459854125977,
        0.9800369739532471
      ],
      "min": [
        0.026409000158309937,
        0.01996302604675293
      ],
      "type": "VEC2"
    },
    {
      "bufferView": 2,
      "byteOffset": 0,
      "componentType": 5123,
      "normalized": false,
      "count": 12636,
      "max": [
        2398
      ],
      "min": [
        0
      ],
      "type": "SCALAR"
    }
  ],
  "scene": 0,
  "scenes": [
    {
      "nodes": [
        3
      ],
      "name": "Duck"
    }
  ],
  "nodes": [
    {
      "name": "LOD3spShape",
      "mesh": 0
    },
    {
      "name": "Camera",
      "matrix": [
        0.9989271759986877,
        0.02876424789428711,
        -0.03629143163561821,
        0,
        -0.010109338909387589,
        0.9002456068992615,
        0.43526506423950195,
        0,
        0.04519127309322357,
        -0.4344312250614166,
        0.8995705842971802,
        0,
        24.920639038085938,
        -279.290283203125,
        23.46436882019043,
        1
      ]
    },
    {
      "children": [
        1
      ],
      "matrix": [
        -0.7289687395095825,
        1.6370238498097933e-9,
        -0.6845471262931824,
        0,
        -0.42520490288734436,
        0.7836934328079224,
        0.4527972936630249,
        0,
        0.5364750623703003,
        0.6211478114128113,
        -0.5712880492210388,
        0,
        400.1130065917969,
        463.2640075683594,
        -431.0780334472656,
        1
      ]
    },
    {
      "children": [
        0,
        2
      ],
      "matrix": [
        0.009999999776482582,
        0,
        0,
        0,
        0,
        0.009999999776482582,
        0,
        0,
        0,
        0,
        0.009999999776482582,
        0,
        0,
        0,
        0,
        1
      ]
    }
  ],
  "meshes": [
    {
      "primitives": [
        {
          "attributes": {
            "NORMAL": 0,
            "POSITION": 1,
            "TEXCOORD_0": 2
          },
          "material": 0,
          "mode": 4,
          "indices": 3
        }
      ]
    }
  ],
  "materials": [
    {
      "pbrMetallicRoughness": {
        "baseColorFactor": [
          1,
          1,
          1,
          1
        ],
        "metallicFactor": 0,
        "roughnessFactor": 1,
        "baseColorTexture": {
          "index": 0,
          "texCoord": 0
        }
      },
      "emissiveFactor": [
        0,
        0,
        0
      ],
      "alphaMode": "OPAQUE",
      "doubleSided": false
    }
  ],
  "textures": [
    {
      "sampler": 0,
      "source": 0
    }
  ],
  "samplers": [
    {
      "magFilter": 9729,
      "minFilter": 9986,
      "wrapS": 10497,
      "wrapT": 10497
    }
  ],
  "images": [
    {
      "uri": "data:image/png;base64,",
      "mimeType": "image/png"
    }
  ]
}